Release info:

General
Format : MPEG-PS
File size : 627 MiB
Duration : 18mn 59s
Overall bit rate mode : Variable
Overall bit rate : 4 613 Kbps

Video
ID : 224 (0xE0)
Format : MPEG Video
Format version : Version 2
Format profile : Main@Main
Format settings, BVOP : Yes
Format settings, Matrix : Default
Format settings, GOP : M=3, N=12
Duration : 18mn 59s
Bit rate mode : Variable
Bit rate : 4 329 Kbps
Maximum bit rate : 9 008 Kbps
Width : 720 pixels
Height : 576 pixels
Display aspect ratio : 16:9
Frame rate : 24.000 fps
Standard : PAL
Color space : YUV
Chroma subsampling : 4:2:0
Bit depth : 8 bits
Scan type : Progressive
Scan order : 2:2:2:2:2:2:2:2:2:2:2:3 Pulldown
Compression mode : Lossy
Bits/(Pixel*Frame) : 0.435
Stream size : 588 MiB (94%)

Audio
ID : 189 (0xBD)-128 (0x80)
Format : AC-3
Format/Info : Audio Coding 3
Mode extension : CM (complete main)
Format settings, Endianness : Big
Muxing mode : DVD-Video
Duration : 18mn 59s
Bit rate mode : Constant
Bit rate : 192 Kbps
Channel(s) : 2 channels
Channel positions : Front: L R
Sampling rate : 48.0 KHz
Bit depth : 16 bits
Compression mode : Lossy
Stream size : 26.1 MiB (4%)

Source:
credit to original movie ripper (Thanks)
Thanks to Doridro Entertainment Team , L0v3rB0y .


Movie Info:

Plot :

An adventurous short film where three friends set out on a journey to seek the truths about the supernatural. And the person helping them is a master astrologer who is adept in dark and forbidden rituals, and bringing down the spirits of deceased people.

Cast

Swapan Guha
Akshay Kapoor
Saikat Ray
Subhrojyoti Mukherjee

Director:Sayantan Ghosal
Producer:Cult Films

Format : VOB
Format/Info : Audio Video Interleave
File size : 633 Mb
Duration : 19 mins

Genre : Horror

Screen Shot:
 
http://www.shotpix.com/images/22975102793877016005.png 
http://www.shotpix.com/images/06299417182654173475.png 
http://www.shotpix.com/images/46024128662869656656.png 
http://www.shotpix.com/images/96688460397180647669.png 
http://www.shotpix.com/images/90399123138592933526.png 
http://www.shotpix.com/images/33527497122944204165.png